<svg width="301" height="181" viewBox="0 0 301 181" fill="none" xmlns="http://www.w3.org/2000/svg">
<ellipse opacity="0.2" cx="150.157" cy="171.26" rx="150.157" ry="9.73991" fill="#98C3E8"/>
<path d="M250.397 142.781C247.405 142.033 252.267 151.198 255.073 155.874C257.202 159.615 261.619 159.147 261.619 156.809C261.619 154.471 254.138 143.717 250.397 142.781Z" fill="url(#paint0_linear)"/>
<path d="M272.405 143.695C272.274 140.613 264.862 147.873 261.173 151.888C258.188 154.989 259.887 159.093 262.13 158.43C264.372 157.768 272.567 147.548 272.405 143.695Z" fill="url(#paint1_linear)"/>
<path d="M261.597 139.64C259.653 137.244 258.038 147.493 257.473 152.916C256.929 157.186 260.742 159.465 262.146 157.595C263.55 155.726 264.026 142.634 261.597 139.64Z" fill="url(#paint2_linear)"/>
<path d="M51.6714 168.799L53.0741 163.655H48.8658L42.3196 172.072L51.6714 168.799Z" fill="#6FCF97"/>
<path d="M23.6162 172.072L27.3569 168.799L24.0838 166.461L13.7969 172.072H23.6162Z" fill="#6FCF97"/>
<path d="M111.524 65.9297L108.718 72.4759L107.315 74.3462L102.639 75.749L102.172 70.6055L105.445 62.6566L111.524 65.9297Z" fill="#F2994A"/>
<path d="M125.551 68.7352L126.954 70.6055L130.695 68.7352L128.824 65.4621C127.422 63.1242 124.756 59.9906 123.213 58.4483C121.811 57.0455 121.966 57.9807 121.811 58.9159L124.616 62.6566C124.616 62.6566 123.466 63.6497 123.213 64.5269C122.905 65.5941 123.067 66.4066 123.681 67.3324C124.185 68.0935 125.551 68.7352 125.551 68.7352Z" fill="url(#paint3_linear)"/>
<path d="M105.911 79.9573L108.249 83.2304L112.457 79.9573C111.21 78.5545 108.716 75.6555 108.716 75.2814V72.4759C107.781 72.7876 106.43 73.8012 104.976 73.411C103.479 73.0095 102.794 71.5407 102.17 70.6055C102.17 70.6055 101.227 71.0688 100.767 71.5407C99.2393 73.1112 99.6731 75.2533 100.767 77.1517C101.91 79.134 105.911 79.9573 105.911 79.9573Z" fill="url(#paint4_linear)"/>
<path d="M130.694 68.7352L147.999 85.5L138.643 87.9063L126.953 70.6056L130.694 68.7352Z" fill="url(#paint5_linear)"/>
<path d="M159.218 76.6841C157.722 73.3175 163.271 68.4234 166.232 66.3972L178.857 81.36L172.778 89.3089L168.102 99.5958L160.621 89.3089L163.426 83.2303C162.647 82.451 160.714 80.0507 159.218 76.6841Z" fill="url(#paint6_linear)"/>
<path d="M27.359 168.331L24.0859 166.461L71.3122 120.17H108.251L116.2 135.6L67.5715 144.484L27.359 168.331Z" fill="url(#paint7_linear)"/>
<path opacity="0.2" d="M114.5 135.5L67.5 144.5L59.5 149L73.5 121L114.5 135.5Z" fill="black"/>
<path d="M127.889 110.818C124.896 112.688 119.316 114.091 117.134 114.559L126.486 127.651L155.009 119.702L166.698 92.1145L162.022 86.0359C159.996 85.7242 154.728 84.5396 151.736 84.1656C147.995 83.698 129.759 89.7766 126.486 89.7766C123.867 89.7766 116.043 83.2304 112.458 79.9573L108.25 83.2304C111.367 87.4387 118.63 96.2293 122.745 97.7256C127.889 99.5959 141.916 95.8552 140.981 97.7256C140.046 99.5959 131.629 108.48 127.889 110.818Z" fill="url(#paint8_linear)"/>
<path opacity="0.2" d="M146.5 99.5C144.9 103.5 133.167 108.833 127.5 111C133.5 107 138 101.5 141 98C143.667 97 148.1 95.5 146.5 99.5Z" fill="black"/>
<path d="M53.0755 163.655H48.8672C53.2313 146.043 63.0818 110.818 67.5706 110.818C72.0595 110.818 102.484 113.312 117.135 114.559L125.084 124.846L104 134.5L75.052 128.119L53.0755 163.655Z" fill="url(#paint9_linear)"/>
<path d="M114.33 169.266C87.2098 170.669 83.9367 165.058 81.5987 160.85C78.7932 152.433 81.5987 146.822 95.6263 138.406C109.654 129.989 126.955 121.572 140.982 113.623C155.01 105.674 176.519 67.8 198.495 64.0593C220.472 60.3186 234.032 88.3738 239.175 117.832C244.319 147.29 228.421 164.123 222.81 164.123C217.199 164.123 141.45 167.863 114.33 169.266Z" fill="url(#paint10_linear)"/>
<path d="M166.23 76.6841C163.238 75.5619 164.984 69.6703 166.23 66.8648C167.769 61.7214 177.92 52.8372 184.934 51.4345C191.947 50.0317 201.299 57.9807 201.299 63.1241C201.299 68.2676 201.299 71.0731 207.845 74.8138C214.392 78.5545 215.794 88.3738 208.781 92.5821C201.767 96.7903 202.702 93.5172 192.415 97.2579C182.128 100.999 176.517 118.299 172.309 110.818C168.101 103.337 175.114 103.804 170.906 98.6607C166.698 93.5172 176.985 85.5683 176.517 81.8276C176.05 78.0869 169.971 78.0869 166.23 76.6841Z" fill="url(#paint11_linear)"/>
<rect x="33.2773" y="57.6278" width="36.4717" height="27.12" fill="#5A98D0"/>
<path d="M47.5808 70.4439C48.7496 72.7409 50.6326 74.6158 52.9296 75.7927L54.7153 74.0071C54.9344 73.7879 55.2591 73.7149 55.5432 73.8123C56.4522 74.1126 57.4343 74.2749 58.4408 74.2749C58.8872 74.2749 59.2524 74.6402 59.2524 75.0866V77.9193C59.2524 78.3657 58.8872 78.7309 58.4408 78.7309C50.8193 78.7309 44.6426 72.5542 44.6426 64.9327C44.6426 64.4863 45.0078 64.1211 45.4542 64.1211H48.295C48.7415 64.1211 49.1067 64.4863 49.1067 64.9327C49.1067 65.9473 49.269 66.9213 49.5693 67.8304C49.6586 68.1144 49.5937 68.431 49.3664 68.6583L47.5808 70.4439Z" fill="white"/>
<rect x="51.9453" width="36.4717" height="27.12" fill="#5A98D0"/>
<path d="M77.1079 7.30493H64.1214C63.2285 7.30493 62.5062 8.03542 62.5062 8.92825L62.498 18.6682C62.498 19.561 63.2285 20.2915 64.1214 20.2915H77.1079C78.0007 20.2915 78.7312 19.561 78.7312 18.6682V8.92825C78.7312 8.03542 78.0007 7.30493 77.1079 7.30493ZM77.1079 10.5516L70.6146 14.6099L64.1214 10.5516V8.92825L70.6146 12.9865L77.1079 8.92825V10.5516Z" fill="white"/>
<rect x="124.184" width="36.4717" height="27.12" fill="#5A98D0"/>
<path d="M142.032 5.68161C137.552 5.68161 133.924 9.31784 133.924 13.7982C133.924 18.2786 137.552 21.9148 142.032 21.9148C146.521 21.9148 150.157 18.2786 150.157 13.7982C150.157 9.31784 146.521 5.68161 142.032 5.68161ZM147.657 10.5516H145.263C145.003 9.53699 144.63 8.563 144.143 7.66206C145.636 8.1734 146.878 9.21233 147.657 10.5516ZM142.04 7.33739C142.714 8.31139 143.242 9.39089 143.591 10.5516H140.49C140.839 9.39089 141.367 8.31139 142.04 7.33739ZM135.758 15.4215C135.628 14.9021 135.547 14.3582 135.547 13.7982C135.547 13.2382 135.628 12.6943 135.758 12.1749H138.502C138.437 12.7106 138.388 13.2463 138.388 13.7982C138.388 14.3501 138.437 14.8858 138.502 15.4215H135.758ZM136.424 17.0448H138.818C139.078 18.0594 139.451 19.0334 139.938 19.9343C138.445 19.423 137.203 18.3922 136.424 17.0448ZM138.818 10.5516H136.424C137.203 9.20421 138.445 8.1734 139.938 7.66206C139.451 8.563 139.078 9.53699 138.818 10.5516ZM142.04 20.259C141.367 19.285 140.839 18.2055 140.49 17.0448H143.591C143.242 18.2055 142.714 19.285 142.04 20.259ZM143.94 15.4215H140.141C140.068 14.8858 140.011 14.3501 140.011 13.7982C140.011 13.2463 140.068 12.7025 140.141 12.1749H143.94C144.013 12.7025 144.07 13.2463 144.07 13.7982C144.07 14.3501 144.013 14.8858 143.94 15.4215ZM144.143 19.9343C144.63 19.0334 145.003 18.0594 145.263 17.0448H147.657C146.878 18.3841 145.636 19.423 144.143 19.9343ZM145.579 15.4215C145.644 14.8858 145.693 14.3501 145.693 13.7982C145.693 13.2463 145.644 12.7106 145.579 12.1749H148.323C148.453 12.6943 148.534 13.2382 148.534 13.7982C148.534 14.3582 148.453 14.9021 148.323 15.4215H145.579Z" fill="white"/>
<path d="M249.461 152.133C250.863 149.795 270.308 150.263 270.97 152.133C271.631 154.004 270.034 164.291 266.761 165.226C263.489 166.161 256.942 166.628 254.136 165.226C251.33 163.823 248.058 154.471 249.461 152.133Z" fill="#F2994A"/>
<defs>
<linearGradient id="paint0_linear" x1="255.538" y1="142.738" x2="255.538" y2="158.624" gradientUnits="userSpaceOnUse">
<stop stop-color="#6CEDA0"/>
<stop offset="1" stop-color="#199D56"/>
</linearGradient>
<linearGradient id="paint1_linear" x1="273.902" y1="148.613" x2="258.666" y2="153.113" gradientUnits="userSpaceOnUse">
<stop stop-color="#6CEDA0"/>
<stop offset="1" stop-color="#199D56"/>
</linearGradient>
<linearGradient id="paint2_linear" x1="265.733" y1="142.693" x2="256.193" y2="155.395" gradientUnits="userSpaceOnUse">
<stop stop-color="#6CEDA0"/>
<stop offset="1" stop-color="#199D56"/>
</linearGradient>
<linearGradient id="paint3_linear" x1="132.021" y1="61.0366" x2="121.327" y2="65.5815" gradientUnits="userSpaceOnUse">
<stop stop-color="#FFF8E1"/>
<stop offset="1" stop-color="#FFCC80"/>
</linearGradient>
<linearGradient id="paint4_linear" x1="114.349" y1="73.8456" x2="101.317" y2="81.9065" gradientUnits="userSpaceOnUse">
<stop stop-color="#FFF8E1"/>
<stop offset="1" stop-color="#FFCC80"/>
</linearGradient>
<linearGradient id="paint5_linear" x1="138.995" y1="67.4491" x2="137.851" y2="86.3108" gradientUnits="userSpaceOnUse">
<stop stop-color="#98D0FC"/>
<stop offset="1" stop-color="#3481D7"/>
</linearGradient>
<linearGradient id="paint6_linear" x1="164" y1="71.5" x2="164.808" y2="84.3269" gradientUnits="userSpaceOnUse">
<stop stop-color="#FFF8E1"/>
<stop offset="1" stop-color="#FFCC80"/>
</linearGradient>
<linearGradient id="paint7_linear" x1="42.501" y1="138" x2="78.001" y2="152" gradientUnits="userSpaceOnUse">
<stop offset="0.0642604" stop-color="#EB5757"/>
<stop offset="1" stop-color="#872727"/>
</linearGradient>
<linearGradient id="paint8_linear" x1="121" y1="80" x2="146.847" y2="110.376" gradientUnits="userSpaceOnUse">
<stop stop-color="#98D0FC"/>
<stop offset="1" stop-color="#3481D7"/>
</linearGradient>
<linearGradient id="paint9_linear" x1="70" y1="108" x2="101" y2="142.5" gradientUnits="userSpaceOnUse">
<stop stop-color="#EB5757"/>
<stop offset="1" stop-color="#872727"/>
</linearGradient>
<linearGradient id="paint10_linear" x1="240" y1="117" x2="166.369" y2="114.12" gradientUnits="userSpaceOnUse">
<stop stop-color="#FCF898"/>
<stop offset="1" stop-color="#D7BD34"/>
</linearGradient>
<linearGradient id="paint11_linear" x1="189.007" y1="51.2711" x2="189.007" y2="112.674" gradientUnits="userSpaceOnUse">
<stop stop-color="#AF6CED"/>
<stop offset="1" stop-color="#5E199D"/>
</linearGradient>
</defs>
</svg>
